# xmcd
#
# Track frame offsets: 
#        150
#        16245
#        36780
#        61090
#        84201
#        111684
#        134907
#        152037
#        177095
#        202271
#        225041
#        243932
#        269442
#
# Disc length: 3927 seconds
#
# Revision: 0
# Processed by: cddbd v1.5.2PL0 Copyright (c) Steve Scherf et al.
# Submitted via: ExactAudioCopy v0.99pb3
#
DISCID=aa0f550d
DTITLE=Various Artist - Tokyo Lounge
DYEAR=2006
DGENRE=Compilation - Downtempo
TTITLE0=USB - Saxi
TTITLE1=The Soul Immigrants - Sunday Drive
TTITLE2=Twin Pink - Type Three
TTITLE3=Urban Electro Squad - Larnyx
TTITLE4=Kevin Yost - Intentions
TTITLE5=Euphonic 7 - Then Came You
TTITLE6=USB Vs Richard Les Crees - Afternoon Blues
TTITLE7=Envelop - Hear My Answer
TTITLE8=Kevin Yost - Drums Delicious
TTITLE9=Fish Go Deep - Layback
TTITLE10=Richard Les Crees - Slow Ride
TTITLE11=Kevin Yost - Big Room Beat
TTITLE12=Kevin Yost - Mi
EXTD=
EXTT0=
EXTT1=
EXTT2=
EXTT3=
EXTT4=
EXTT5=
EXTT6=
EXTT7=
EXTT8=
EXTT9=
EXTT10=
EXTT11=
EXTT12=
PLAYORDER=
